# xmcd
#
# Track frame offsets:
#	150
#	11999
#	23481
#	41274
#	54578
#	67726
#	78383
#	90224
#	107697
#	117932
#	133548
#	149091
#	162533
#
# Disc length: 2382 seconds
#
# Revision: 0
# Processed by: cddbd v1.5.2PL0 Copyright (c) Steve Scherf et al.
# Submitted via: EasyCDDAExtractor 16.0.8.1
#
DISCID=a2094c0d
DTITLE=Felipe and Falcão - 2011
DYEAR=2011
DGENRE=Sertanejo
TTITLE0=Rolinha ensinada
TTITLE1=Eu quero é dar risada
TTITLE2=Show de mulher
TTITLE3=Tô fora, tô dentro
TTITLE4=Pagando meus pecados
TTITLE5=Parar de beber pinga nóis não pára
TTITLE6=Nosso amor deu liga
TTITLE7=Saudade é chorar por ela
TTITLE8=O pau vai quebrar
TTITLE9=Mulher braasileira
TTITLE10=Por um gole a mais
TTITLE11=Amor carne e unha
TTITLE12=Minha estrela, minha vida
EXTD=
EXTT0=
EXTT1=
EXTT2=
EXTT3=
EXTT4=
EXTT5=
EXTT6=
EXTT7=
EXTT8=
EXTT9=
EXTT10=
EXTT11=
EXTT12=
PLAYORDER=
